<?xml version="1.0" encoding="UTF-8"?>
<!DOCTYPE svg PUBLIC "-//W3C//DTD SVG 1.1//EN" "http://www.w3.org/Graphics/SVG/1.1/DTD/svg11.dtd">
<!-- Creator: CorelDRAW 2019 (64 Bit) -->
<svg xmlns="http://www.w3.org/2000/svg" xml:space="preserve" width="202.268mm" height="210mm" version="1.1" style="shape-rendering:geometricPrecision; text-rendering:geometricPrecision; image-rendering:optimizeQuality; fill-rule:evenodd; clip-rule:evenodd"
viewBox="0 0 22620.13 23484.87"
 xmlns:xlink="http://www.w3.org/1999/xlink"
 xmlns:xodm="http://www.corel.com/coreldraw/odm/2003">
 <defs>
  <style type="text/css">
   <![CDATA[
    .fil0 {fill:#6B809B;fill-rule:nonzero}
   ]]>
  </style>
 </defs>
 <g id="Camada_x0020_1">
  <metadata id="CorelCorpID_0Corel-Layer"/>
  <g id="home-svgrepo-com.svg">
   <g>
    <g>
     <path class="fil0" d="M20581.8 12668.68c-57.5,-1073.47 -277.95,-1964.84 -709.25,-1888.16 -397.75,71.89 -690.09,833.86 -733.22,1936.08 -81.47,1979.21 -172.52,3977.59 -162.94,5961.61l23.97 2396.15c14.38,268.36 -67.09,512.77 -162.94,642.17 -23.97,28.75 -43.13,52.72 -62.3,62.3 -9.58,9.58 -14.38,9.58 -14.38,14.38l-4.8 -0.01c0,0 -4.8,4.8 0,0 4.8,0 14.38,-4.8 19.17,-4.8 4.79,0 14.38,0 19.17,4.8 4.79,4.8 19.17,9.58 0,9.58l-76.67 4.8 -9.58 0 -4.8 0c23.97,-4.8 -52.72,9.58 47.92,-9.58l0 0 -19.16 0 -38.35 0 -76.67 0 -301.91 4.8 -2396.15 52.72 -599.03 14.38 -148.56 4.8c-14.38,0 -28.75,0 -43.13,0 -28.75,-4.8 -57.5,-9.58 -81.47,-19.17 -52.72,-23.97 -100.64,-67.09 -129.39,-124.6 -4.8,-14.38 -14.38,-28.75 -19.17,-43.13 -9.58,-28.75 0,9.58 -9.58,-23.97l-4.8 -76.67 0 0 0 -4.8 0 -38.34 -4.8 -148.56c138.97,-1432.89 220.44,-2870.57 268.36,-4317.86l28.75 -1083.05 4.8 -273.16 0 -67.09c0,-23.97 0,-38.34 0,-91.05 0,-91.05 -9.58,-182.11 -23.97,-273.16 -57.5,-364.22 -234.83,-704.47 -488.81,-968.05 -253.99,-263.58 -589.45,-450.47 -958.46,-527.16 -110.22,-23.97 -258.78,-33.55 -273.16,-33.55l-33.53 0 -81.47 0 -67.1 0 -273.15 0 -1087.85 -4.8 -2204.46 4.8c-369,9.58 -742.8,134.19 -1039.93,354.63 -301.91,215.66 -531.94,522.36 -656.55,876.99 -33.55,86.26 -52.72,177.31 -76.67,268.36 -9.58,57.5 -19.17,115.02 -23.97,172.52l-4.8 43.13 0 19.17 0 33.55 -4.8 115.02 0 67.09 0 134.19 0 546.32c4.8,1452.07 4.8,2904.12 -23.97,4351.39 -4.8,258.78 162.94,661.33 277.95,790.72 234.83,253.99 431.3,-76.67 579.86,-565.49 249.2,-809.89 426.52,-1706.05 546.32,-2645.34 62.3,-469.64 110.22,-953.66 143.77,-1447.27 19.17,-244.41 33.55,-493.61 47.92,-738.02l14.38 -373.8 4.8 -91.05 0 -47.92 0 -4.8c0,67.09 0,19.17 0,33.55l0 0 0 -4.8 0 -9.58 0 -23.97 4.8 -47.92c0,-9.58 4.8,0 4.8,0 0,4.8 0,4.8 4.8,-4.8 23.97,-76.67 95.84,-134.19 167.73,-148.56 -33.55,-14.38 397.75,9.58 670.92,14.38l1801.9 57.5 900.95 28.75 225.24 4.8 57.52 0 14.37 0 4.8 0c-81.47,0 -19.17,0 -38.34,0l4.79 0 28.75 0 52.72 4.8c-4.8,0 -14.38,4.8 -19.17,4.8 -19.17,-4.8 -4.8,4.8 -4.8,4.8 4.8,4.8 4.8,4.8 9.58,4.8 4.8,4.8 9.58,9.58 14.38,14.38 9.58,9.58 14.38,28.75 14.38,38.34 0,4.8 0,9.58 0,14.38 0,14.38 -4.8,-19.17 -4.8,86.26l-19.17 900.95c-23.97,1202.86 -43.13,2410.52 -43.13,3618.18l4.8 905.74 4.8 450.47 0 100.64 4.8 57.5 0 28.75 4.8 62.3c4.8,47.92 14.38,91.05 19.17,138.97 33.55,158.14 76.67,297.12 143.77,431.3 253.99,546.32 800.31,934.5 1394.55,1001.58 71.89,9.58 148.56,9.58 220.44,14.38l119.8 -0.01 225.24 -4.8 455.27 -14.38c599.03,19.17 1198.07,33.55 1797.1,52.72l714.05 14.38 177.31 4.8 91.04 0 9.58 0 76.67 -4.8 23.97 0 43.13 0c4.8,0 115.02,-9.58 196.48,-28.75 43.13,-9.58 86.26,-19.17 124.6,-28.75l95.84 -28.75c124.6,-43.13 234.83,-100.64 345.05,-162.94 412.14,-258.78 656.55,-608.62 814.69,-944.08 158.14,-340.25 234.83,-690.09 249.2,-1039.93l4.8 -129.39 0 -91.05 0 -177.31 4.8 -354.63 4.8 -709.25 0 -1423.3c23.95,-1883.37 -19.18,-3776.33 -115.02,-5664.49z"/>
     <path class="fil0" d="M22407.66 11566.44c316.3,-28.75 239.61,-364.22 28.75,-757.18 -699.67,-1289.13 -1801.9,-2568.67 -3033.51,-3747.57 -1198.07,-1150.15 -2400.93,-2300.3 -3599.01,-3455.24 -603.83,-575.08 -1207.66,-1145.36 -1821.07,-1706.05l-929.71 -838.65 -464.85 -416.93 -234.83 -206.07 -115.02 -105.44 -91.05 -76.67 -62.3 -47.92 -9.58 -9.58c-340.25,-273.16 -838.65,-268.36 -1169.32,33.55 -579.86,527.16 -1154.94,1063.89 -1715.63,1605.41 -392.97,325.88 -785.94,656.55 -1174.11,982.42 -2472.82,2103.82 -4902.51,4241.17 -7169.26,6536.68 -646.96,651.75 -1068.68,1322.67 -723.64,1605.41 311.5,253.99 992,38.34 1720.43,-555.91 277.95,-225.24 560.7,-450.47 838.65,-680.5 -76.67,977.63 -143.77,1964.84 -134.19,2942.46 19.17,1773.15 115.02,3546.29 177.31,5319.44 -138.97,795.52 -220.44,1595.83 -268.36,2396.15l-28.75 603.83 -9.58 301.91 -4.8 148.56 0 76.67 4.8 134.19c14.38,388.17 158.14,771.56 397.75,1078.27 234.83,311.5 570.28,546.32 944.08,666.13 47.92,14.38 95.84,28.75 143.77,38.34l71.89 19.17 91.05 14.38 91.05 9.58 71.89 4.8 76.67 4.8 86.28 0 38.34 0 76.67 0 153.36 0 603.83 -4.8 1212.44 -9.58 1207.66 0 153.36 0 76.67 0 38.35 0 76.67 0c201.28,-4.8 407.34,-47.92 603.83,-119.81 388.17,-148.56 718.85,-421.72 934.5,-776.35 81.47,-124.6 119.81,-321.08 105.44,-493.61 -4.8,-43.13 -9.58,-81.47 -14.38,-124.6 -4.8,-47.92 -19.17,-91.05 -28.75,-129.39 -19.17,-95.84 -57.5,-105.44 -81.47,-124.6 -115.02,-76.67 -220.44,-71.89 -321.08,-14.38 -47.92,19.17 -100.64,86.26 -158.14,153.36 -57.5,57.5 -115.02,115.02 -177.31,172.52 -210.86,182.11 -460.06,258.78 -666.13,249.2 -105.44,-4.8 -191.69,-33.55 -282.75,-71.89 -129.39,-38.34 -258.78,-71.89 -388.17,-100.64 -522.36,-124.6 -1073.47,-191.69 -1629.38,-220.44l-1001.58 -52.72 -498.39 -28.75 -33.56 0.02 -9.58 0 -4.8 0c14.38,0 -38.34,0 33.55,0l0 0 -14.38 0 -62.3 -4.8c-28.75,0 -19.17,-4.8 -19.17,-4.8 4.8,0 4.8,0 9.58,0 -19.17,-9.58 -38.34,-19.17 -52.72,-33.55 -62.3,-47.92 -91.05,-129.39 -81.47,-191.69 0,-9.58 4.8,-14.38 4.8,-23.97l4.8 -119.81 9.58 -249.2 19.17 -503.19c52.72,-1337.05 62.3,-2674.1 -14.38,-4020.73l52.72 -996.8c81.47,-2108.6 105.44,-4212.42 -91.05,-6311.44 -23.97,-258.78 -81.47,-493.61 -172.52,-675.71 594.24,-498.39 1183.69,-1001.58 1758.77,-1519.16 1931.29,-1749.18 3819.45,-3555.87 5717.2,-5338.61l239.61 253.99 627.79 651.75c421.72,431.3 853.03,857.82 1289.13,1279.54 872.19,838.65 1768.35,1658.13 2674.1,2472.82 1811.49,1624.58 3661.31,3210.84 5429.66,4868.97 138.97,158.15 503.19,263.59 666.13,244.41z"/>
    </g>
   </g>
   <g>
   </g>
   <g>
   </g>
   <g>
   </g>
   <g>
   </g>
   <g>
   </g>
   <g>
   </g>
   <g>
   </g>
   <g>
   </g>
   <g>
   </g>
   <g>
   </g>
   <g>
   </g>
   <g>
   </g>
   <g>
   </g>
   <g>
   </g>
   <g>
   </g>
  </g>
 </g>
</svg>
